HIERARCHY
ROOT root
{
  OFFSET 0 98.6856 0
  CHANNELS 6 Xposition Yposition Zposition Zrotation Xrotation Yrotation
  JOINT torso_1
  {
    OFFSET 0 5.37224 -1.21793
    CHANNELS 6 Xposition Yposition Zposition Zrotation Xrotation Yrotation
    JOINT torso_2
    {
      OFFSET 0 5.94127 1.13336
      CHANNELS 6 Xposition Yposition Zposition Zrotation Xrotation Yrotation
      JOINT torso_3
      {
        OFFSET -1.08535e-17 6.33601 0.121658
        CHANNELS 6 Xposition Yposition Zposition Zrotation Xrotation Yrotation
        JOINT torso_4
        {
          OFFSET -1.16841e-17 6.88189 -0.46916
          CHANNELS 6 Xposition Yposition Zposition Zrotation Xrotation Yrotation
          JOINT torso_5
          {
            OFFSET -2.08699e-17 8.0451 -1.59297
            CHANNELS 6 Xposition Yposition Zposition Zrotation Xrotation Yrotation
            JOINT torso_6
            {
              OFFSET -2.67949e-17 10.0463 -0.967353
              CHANNELS 6 Xposition Yposition Zposition Zrotation Xrotation Yrotation
              JOINT torso_7
              {
                OFFSET -3.07187e-17 11.1612 1.66806
                CHANNELS 6 Xposition Yposition Zposition Zrotation Xrotation Yrotation
                JOINT neck_1
                {
                  OFFSET -1.36661e-17 5.06312 0.756688
                  CHANNELS 6 Xposition Yposition Zposition Zrotation Xrotation Yrotation
                  JOINT neck_2
                  {
                    OFFSET -1.91632e-17 5.09976 0.446172
                    CHANNELS 6 Xposition Yposition Zposition Zrotation Xrotation Yrotation
                    JOINT head
                    {
                      OFFSET -2.12574e-17 5.10962 0.809285
                      CHANNELS 6 Xposition Yposition Zposition Zrotation Xrotation Yrotation
                      End Site
                      {
                        OFFSET 0 0.1 0
                      }
                    }
                  }
                }
                JOINT l_shoulder
                {
                  OFFSET 1.30426 -8.04703 7.96922
                  CHANNELS 6 Xposition Yposition Zposition Zrotation Xrotation Yrotation
                  JOINT l_up_arm
                  {
                    OFFSET 13.7035 3.43734 -3.45766
                    CHANNELS 6 Xposition Yposition Zposition Zrotation Xrotation Yrotation
                    JOINT l_low_arm
                    {
                      OFFSET 30.8964 0.0632652 0.14496
                      CHANNELS 6 Xposition Yposition Zposition Zrotation Xrotation Yrotation
                      JOINT l_hand
                      {
                        OFFSET 25.6348 0.0524902 0.120274
                        CHANNELS 6 Xposition Yposition Zposition Zrotation Xrotation Yrotation
                        End Site
                        {
                          OFFSET 0.1 0 0
                        }
                      }
                    }
                  }
                }
                JOINT r_shoulder
                {
                  OFFSET -1.30426 -8.04702 7.96912
                  CHANNELS 6 Xposition Yposition Zposition Zrotation Xrotation Yrotation
                  JOINT r_up_arm
                  {
                    OFFSET -13.7035 3.43734 -3.45766
                    CHANNELS 6 Xposition Yposition Zposition Zrotation Xrotation Yrotation
                    JOINT r_low_arm
                    {
                      OFFSET -30.8964 0.0632652 0.14496
                      CHANNELS 6 Xposition Yposition Zposition Zrotation Xrotation Yrotation
                      JOINT r_hand
                      {
                        OFFSET -25.6348 0.0524901 0.120274
                        CHANNELS 6 Xposition Yposition Zposition Zrotation Xrotation Yrotation
                        End Site
                        {
                          OFFSET -0.1 0 0
                        }
                      }
                    }
                  }
                }
              }
            }
          }
        }
      }
    }
  }
  JOINT l_up_leg
  {
    OFFSET 9.77065 -4.44866 2.1502
    CHANNELS 6 Xposition Yposition Zposition Zrotation Xrotation Yrotation
    JOINT l_low_leg
    {
      OFFSET -0.901622 -41.0132 -0.693059
      CHANNELS 6 Xposition Yposition Zposition Zrotation Xrotation Yrotation
      JOINT l_foot
      {
        OFFSET -2.46068 -42.7371 -6.39839
        CHANNELS 6 Xposition Yposition Zposition Zrotation Xrotation Yrotation
        JOINT l_toes
        {
          OFFSET 0.82413 -10.4558 13.2182
          CHANNELS 6 Xposition Yposition Zposition Zrotation Xrotation Yrotation
          End Site
          {
            OFFSET 0 0 0.1
          }
        }
      }
    }
  }
  JOINT r_up_leg
  {
    OFFSET -9.77065 -4.44866 2.1502
    CHANNELS 6 Xposition Yposition Zposition Zrotation Xrotation Yrotation
    JOINT r_low_leg
    {
      OFFSET 0.901622 -41.0132 -0.693059
      CHANNELS 6 Xposition Yposition Zposition Zrotation Xrotation Yrotation
      JOINT r_foot
      {
        OFFSET 2.46068 -42.7371 -6.39839
        CHANNELS 6 Xposition Yposition Zposition Zrotation Xrotation Yrotation
        JOINT r_toes
        {
          OFFSET -0.82413 -10.4558 13.2182
          CHANNELS 6 Xposition Yposition Zposition Zrotation Xrotation Yrotation
          End Site
          {
            OFFSET 0 0 0.1
          }
        }
      }
    }
  }
}
MOTION
Frames:7
Frame Time:0.020000
0 98.6856 0 -0 0 -0 0 5.37224 -1.21793 -0 0 -0 0 5.94127 1.13336 -0 0 -0 -1.08535e-17 6.33601 0.121658 -0 0 -0 -1.16841e-17 6.88189 -0.46916 -0 0 -0 -2.08699e-17 8.0451 -1.59297 -0 0 -0 -2.67949e-17 10.0463 -0.967353 -0 0 -0 -3.07187e-17 11.1612 1.66806 -0 0 -0 -1.36661e-17 5.06312 0.756688 -0 0 -0 -1.91632e-17 5.09976 0.446172 -0 0 -0 -2.12574e-17 5.10962 0.809285 -0 0 -0 1.30426 -8.04703 7.96922 -0 0 -0 13.7035 3.43734 -3.45766 -0 0 -0 30.8964 0.0632652 0.14496 -0 0 -0 25.6348 0.0524902 0.120274 -0 0 -0 -1.30426 -8.04702 7.96912 -0 0 -0 -13.7035 3.43734 -3.45766 -0 0 -0 -30.8964 0.0632652 0.14496 -0 0 -0 -25.6348 0.0524901 0.120274 -0 0 -0 9.77065 -4.44866 2.1502 -0 0 -0 -0.901622 -41.0132 -0.693059 -0 0 -0 -2.46068 -42.7371 -6.39839 -0 0 -0 0.82413 -10.4558 13.2182 -0 0 -0 -9.77065 -4.44866 2.1502 -0 0 -0 0.901622 -41.0132 -0.693059 -0 0 -0 2.46068 -42.7371 -6.39839 -0 0 -0 -0.82413 -10.4558 13.2182 -0 0 -0 
-68.6908 98.7918 -43.7342 0.606855 1.15519 -2.49597 0 5.37224 -1.21793 -0.509039 -0.512717 -0.072852 0 5.94127 1.13336 -0.431538 -0.340884 -0.153365 -1.08535e-17 6.33601 0.121658 -0.221222 -0.123589 -0.116232 -1.16841e-17 6.88189 -0.46916 0.00639396 0.0726675 -0.120262 -2.08699e-17 8.0451 -1.59297 0.2329 0.176229 -0.143171 -2.67949e-17 10.0463 -0.967353 0.400345 0.024081 -0.335199 -3.07187e-17 11.1612 1.66806 0.00588737 0.13939 -0.00605521 -1.36661e-17 5.06312 0.756688 1.13378 -1.01619 1.16485 -1.91632e-17 5.09976 0.446172 0.845143 3.70692 0.0584715 -2.12574e-17 5.10962 0.809285 1.79555 8.37069 -2.81057 1.30426 -8.04703 7.96922 -0.892559 2.95162 -2.93242 13.7035 3.43734 -3.45766 -85.9298 14.5335 0.549613 30.8964 0.0632652 0.14496 1.71477 -0.115248 -8.2912 25.6348 0.0524902 0.120274 -2.12656 -16.1827 -4.92925 -1.30426 -8.04702 7.96912 3.86961 5.20729 3.16518 -13.7035 3.43734 -3.45766 80.8385 17.2507 4.77489 -30.8964 0.0632652 0.14496 -1.51888 -0.089543 7.33858 -25.6348 0.0524901 0.120274 0.928205 -16.1171 2.58002 9.77065 -4.44866 2.1502 0.75055 -0.406658 -13.981 -0.901622 -41.0132 -0.693059 -0.102374 0.382091 -0.006328 -2.46068 -42.7371 -6.39839 2.55873 0.942255 14.7731 0.82413 -10.4558 13.2182 -3.47873e-16 -8.07563e-16 2.48481e-17 -9.77065 -4.44866 2.1502 -0.590837 -0.459377 16.4052 0.901622 -41.0132 -0.693059 0.0441663 0.164822 0.00281394 2.46068 -42.7371 -6.39839 -2.63087 -0.171172 -14.7865 -0.82413 -10.4558 13.2182 -1.98785e-16 -5.8393e-16 -1.27595e-14 
-68.6955 98.7901 -43.7348 0.623559 1.1574 -2.49788 0 5.37224 -1.21793 -0.51461 -0.510389 -0.0728525 0 5.94127 1.13336 -0.43641 -0.339556 -0.154294 -1.08535e-17 6.33601 0.121658 -0.224875 -0.123685 -0.117243 -1.16841e-17 6.88189 -0.46916 0.00399263 0.0702464 -0.121392 -2.08699e-17 8.0451 -1.59297 0.231654 0.172604 -0.14385 -2.67949e-17 10.0463 -0.967353 0.400264 0.0194521 -0.335827 -3.07187e-17 11.1612 1.66806 0.00589812 0.13942 -0.00607853 -1.36661e-17 5.06312 0.756688 1.13571 -1.02292 1.17397 -1.91632e-17 5.09976 0.446172 0.844351 3.71164 0.062486 -2.12574e-17 5.10962 0.809285 1.79663 8.37854 -2.81201 1.30426 -8.04703 7.96922 -0.887253 2.9532 -2.93372 13.7035 3.43734 -3.45766 -85.9358 14.5285 0.551875 30.8964 0.0632652 0.14496 1.71464 -0.115229 -8.29055 25.6348 0.0524902 0.120274 -2.13209 -16.2054 -4.93266 -1.30426 -8.04702 7.96912 3.87079 5.20873 3.1668 -13.7035 3.43734 -3.45766 80.8492 17.228 4.77694 -30.8964 0.0632652 0.14496 -1.51856 -0.0895031 7.33701 -25.6348 0.0524901 0.120274 0.917819 -16.0854 2.58207 9.77065 -4.44866 2.1502 0.736631 -0.41294 -13.9821 -0.901622 -41.0132 -0.693059 -0.1034 0.38592 -0.00638795 -2.46068 -42.7371 -6.39839 2.55557 0.945589 14.7731 0.82413 -10.4558 13.2182 -3.47873e-16 -8.07563e-16 2.48481e-17 -9.77065 -4.44866 2.1502 -0.604116 -0.45569 16.4094 0.901622 -41.0132 -0.693059 0.0419513 0.156555 0.00267586 2.46068 -42.7371 -6.39839 -2.64248 -0.184272 -14.7868 -0.82413 -10.4558 13.2182 -7.04654e-17 -5.8794e-16 -1.27635e-14 
-68.7004 98.788 -43.7353 0.633638 1.16693 -2.50282 0 5.37224 -1.21793 -0.518673 -0.509278 -0.0729477 0 5.94127 1.13336 -0.439985 -0.339378 -0.155105 -1.08535e-17 6.33601 0.121658 -0.227565 -0.124951 -0.118125 -1.16841e-17 6.88189 -0.46916 0.00218263 0.0665479 -0.122407 -2.08699e-17 8.0451 -1.59297 0.230648 0.167973 -0.144496 -2.67949e-17 10.0463 -0.967353 0.400068 0.0136919 -0.336374 -3.07187e-17 11.1612 1.66806 0.00591101 0.139461 -0.00609048 -1.36661e-17 5.06312 0.756688 1.13761 -1.02828 1.18584 -1.91632e-17 5.09976 0.446172 0.842099 3.72374 0.0677322 -2.12574e-17 5.10962 0.809285 1.79907 8.39295 -2.81398 1.30426 -8.04703 7.96922 -0.88095 2.95643 -2.93452 13.7035 3.43734 -3.45766 -85.9452 14.5279 0.558043 30.8964 0.0632652 0.14496 1.7146 -0.115223 -8.29034 25.6348 0.0524902 0.120274 -2.13802 -16.2329 -4.94491 -1.30426 -8.04702 7.96912 3.87364 5.21181 3.16901 -13.7035 3.43734 -3.45766 80.8551 17.2048 4.77473 -30.8964 0.0632652 0.14496 -1.51858 -0.0895065 7.33715 -25.6348 0.0524901 0.120274 0.915295 -16.0606 2.58667 9.77065 -4.44866 2.1502 0.730205 -0.431367 -13.9797 -0.901622 -41.0132 -0.693059 -0.107467 0.401104 -0.00662506 -2.46068 -42.7371 -6.39839 2.55446 0.93889 14.7737 0.82413 -10.4558 13.2182 -9.12377e-17 -7.99543e-16 1.68282e-17 -9.77065 -4.44866 2.1502 -0.610495 -0.459255 16.412 0.901622 -41.0132 -0.693059 0.0395608 0.147634 0.00252648 2.46068 -42.7371 -6.39839 -2.64973 -0.196186 -14.7871 -0.82413 -10.4558 13.2182 -1.86169e-16 -5.80314e-16 -1.27559e-14 
-68.7059 98.7868 -43.7361 0.639732 1.17334 -2.51397 0 5.37224 -1.21793 -0.520393 -0.509 -0.0734221 0 5.94127 1.13336 -0.441492 -0.339818 -0.155955 -1.08535e-17 6.33601 0.121658 -0.228659 -0.126488 -0.119011 -1.16841e-17 6.88189 -0.46916 0.0014914 0.0630678 -0.123375 -2.08699e-17 8.0451 -1.59297 0.230247 0.164134 -0.145276 -2.67949e-17 10.0463 -0.967353 0.399911 0.00899127 -0.33709 -3.07187e-17 11.1612 1.66806 0.00592939 0.139504 -0.00609536 -1.36661e-17 5.06312 0.756688 1.14022 -1.03081 1.20625 -1.91632e-17 5.09976 0.446172 0.838787 3.73809 0.0768167 -2.12574e-17 5.10962 0.809285 1.79534 8.40883 -2.8163 1.30426 -8.04703 7.96922 -0.87568 2.95782 -2.93408 13.7035 3.43734 -3.45766 -85.9592 14.5249 0.565464 30.8964 0.0632652 0.14496 1.71449 -0.115207 -8.2898 25.6348 0.0524902 0.120274 -2.1467 -16.2708 -4.9574 -1.30426 -8.04702 7.96912 3.87955 5.21497 3.17199 -13.7035 3.43734 -3.45766 80.8564 17.1844 4.77211 -30.8964 0.0632652 0.14496 -1.51789 -0.0894213 7.33379 -25.6348 0.0524901 0.120274 0.917205 -16.0411 2.58682 9.77065 -4.44866 2.1502 0.728601 -0.442186 -13.972 -0.901622 -41.0132 -0.693059 -0.109579 0.408988 -0.00674774 -2.46068 -42.7371 -6.39839 2.55168 0.933924 14.7744 0.82413 -10.4558 13.2182 3.18951e-16 -7.86724e-16 4.00983e-18 -9.77065 -4.44866 2.1502 -0.612186 -0.462056 16.4156 0.901622 -41.0132 -0.693059 0.0374387 0.139713 0.00239355 2.46068 -42.7371 -6.39839 -2.65556 -0.201478 -14.7869 -0.82413 -10.4558 13.2182 -7.37294e-16 -5.58687e-16 -1.27342e-14 
-68.7111 98.7862 -43.738 0.635855 1.17605 -2.52271 0 5.37224 -1.21793 -0.518769 -0.507698 -0.0744083 0 5.94127 1.13336 -0.439987 -0.339232 -0.156764 -1.08535e-17 6.33601 0.121658 -0.227406 -0.126784 -0.119749 -1.16841e-17 6.88189 -0.46916 0.0024739 0.0610031 -0.124102 -2.08699e-17 8.0451 -1.59297 0.230788 0.161848 -0.146077 -2.67949e-17 10.0463 -0.967353 0.399905 0.00625174 -0.337884 -3.07187e-17 11.1612 1.66806 0.0059532 0.139557 -0.00608697 -1.36661e-17 5.06312 0.756688 1.14301 -1.03723 1.2264 -1.91632e-17 5.09976 0.446172 0.835593 3.7454 0.0858433 -2.12574e-17 5.10962 0.809285 1.79422 8.42628 -2.81935 1.30426 -8.04703 7.96922 -0.874467 2.95871 -2.93377 13.7035 3.43734 -3.45766 -85.975 14.5233 0.569541 30.8964 0.0632652 0.14496 1.7155 -0.11535 -8.29472 25.6348 0.0524902 0.120274 -2.14987 -16.3056 -4.96552 -1.30426 -8.04702 7.96912 3.88712 5.21892 3.1751 -13.7035 3.43734 -3.45766 80.8502 17.1691 4.77143 -30.8964 0.0632652 0.14496 -1.51636 -0.0892314 7.32632 -25.6348 0.0524901 0.120274 0.920444 -16.031 2.58359 9.77065 -4.44866 2.1502 0.736708 -0.446074 -13.9628 -0.901622 -41.0132 -0.693059 -0.110059 0.410779 -0.00677556 -2.46068 -42.7371 -6.39839 2.55059 0.927783 14.7751 0.82413 -10.4558 13.2182 -7.86184e-17 -7.99148e-16 1.64339e-17 -9.77065 -4.44866 2.1502 -0.604859 -0.466595 16.4256 0.901622 -41.0132 -0.693059 0.0375404 0.140093 0.00239993 2.46068 -42.7371 -6.39839 -2.6565 -0.20017 -14.7862 -0.82413 -10.4558 13.2182 -1.98785e-16 -5.8393e-16 -1.27595e-14 
-68.7162 98.7858 -43.7408 0.628867 1.18366 -2.52978 0 5.37224 -1.21793 -0.51622 -0.507747 -0.0753765 0 5.94127 1.13336 -0.437554 -0.339351 -0.157391 -1.08535e-17 6.33601 0.121658 -0.225361 -0.126849 -0.120295 -1.16841e-17 6.88189 -0.46916 0.00410944 0.0606883 -0.124615 -2.08699e-17 8.0451 -1.59297 0.231838 0.162127 -0.14674 -2.67949e-17 10.0463 -0.967353 0.400307 0.0066728 -0.338609 -3.07187e-17 11.1612 1.66806 0.00598551 0.139581 -0.00606116 -1.36661e-17 5.06312 0.756688 1.14548 -1.04424 1.24213 -1.91632e-17 5.09976 0.446172 0.833085 3.74741 0.0929292 -2.12574e-17 5.10962 0.809285 1.79358 8.43058 -2.81863 1.30426 -8.04703 7.96922 -0.873959 2.95782 -2.93172 13.7035 3.43734 -3.45766 -85.9908 14.5271 0.567154 30.8964 0.0632652 0.14496 1.71736 -0.115612 -8.3038 25.6348 0.0524902 0.120274 -2.15078 -16.3363 -4.97206 -1.30426 -8.04702 7.96912 3.89682 5.22203 3.17752 -13.7035 3.43734 -3.45766 80.8406 17.1492 4.77437 -30.8964 0.0632652 0.14496 -1.51422 -0.0889681 7.31595 -25.6348 0.0524901 0.120274 0.91677 -16.0191 2.57876 9.77065 -4.44866 2.1502 0.747951 -0.456366 -13.9562 -0.901622 -41.0132 -0.693059 -0.111244 0.415202 -0.00684422 -2.46068 -42.7371 -6.39839 2.55136 0.919096 14.7759 0.82413 -10.4558 13.2182 -2.19559e-16 -8.03553e-16 2.08383e-17 -9.77065 -4.44866 2.1502 -0.593659 -0.479192 16.4355 0.901622 -41.0132 -0.693059 0.0389279 0.145271 0.00248686 2.46068 -42.7371 -6.39839 -2.65952 -0.197283 -14.7852 -0.82413 -10.4558 13.2182 -1.98785e-16 -5.8393e-16 -1.27595e-14 
